<?xml version="1.0" standalone="no"?><!DOCTYPE svg PUBLIC "-//W3C//DTD SVG 1.1//EN" "http://www.w3.org/Graphics/SVG/1.1/DTD/svg11.dtd"><svg t="1644127188061" class="icon" viewBox="0 0 1024 1024" version="1.1" xmlns="http://www.w3.org/2000/svg" p-id="18957" xmlns:xlink="http://www.w3.org/1999/xlink" width="200" height="200"><defs><style type="text/css"></style></defs><path d="M508 148v200c0 17.673-14.327 32-32 32H267v450.083c0 19.856 1.168 25.903 4.468 32.074 2.434 4.55 5.825 7.941 10.375 10.375 6.171 3.3 12.218 4.468 32.074 4.468H674c16.569 0 30 13.431 30 30 0 16.569-13.431 30-30 30H313.917c-28.914 0-44.318-2.975-60.37-11.56-15.006-8.025-26.962-19.98-34.987-34.987-8.585-16.052-11.56-31.456-11.56-60.37V358.067c0-16.95 0.648-25.001 2.858-34.287 2.233-9.38 5.871-17.9 11.103-26 5.179-8.018 10.546-14.053 22.79-25.775l157.287-150.577c11.774-11.273 17.68-16.14 25.428-20.829 7.879-4.768 16.067-8.056 25.056-10.06 8.84-1.97 16.47-2.539 32.771-2.539h225.79c28.914 0 44.318 2.975 60.37 11.56 15.006 8.025 26.962 19.98 34.987 34.987 8.585 16.052 11.56 31.456 11.56 60.37V546c0 16.569-13.431 30-30 30-16.569 0-30-13.431-30-30V194.917c0-19.856-1.168-25.903-4.468-32.074-2.434-4.55-5.825-7.941-10.375-10.375-6.171-3.3-12.218-4.468-32.074-4.468H508z m-60 11.604a442.271 442.271 0 0 0-5.47 5.164L285.243 315.346a464.8 464.8 0 0 0-4.802 4.654H448V159.604zM760 760v-90c0-16.569 13.431-30 30-30 16.569 0 30 13.431 30 30v90h89c16.569 0 30 13.431 30 30 0 16.569-13.431 30-30 30h-89v89c0 16.569-13.431 30-30 30-16.569 0-30-13.431-30-30v-89h-90c-16.569 0-30-13.431-30-30 0-16.569 13.431-30 30-30h90z" p-id="18958" fill="#e6e6e6"></path></svg>