<?xml version="1.0" standalone="no"?><!DOCTYPE svg PUBLIC "-//W3C//DTD SVG 1.1//EN" "http://www.w3.org/Graphics/SVG/1.1/DTD/svg11.dtd"><svg t="1644061162183" class="icon" viewBox="0 0 1024 1024" version="1.1" xmlns="http://www.w3.org/2000/svg" p-id="8280" xmlns:xlink="http://www.w3.org/1999/xlink" width="200" height="200"><defs><style type="text/css"></style></defs><path d="M984.584318 420.186503a39.363065 39.363065 0 0 0-39.419949 39.363066v213.937123L654.207606 945.216986H278.779525a42.036568 42.036568 0 0 1-42.036568-41.979685v-36.746446H157.561762v36.746446A120.933349 120.933349 0 0 0 278.381344 1024h391.127801a39.81813 39.81813 0 0 0 26.905679-10.580246l315.01829-294.028447a39.81813 39.81813 0 0 0 12.514269-28.839703V459.549569a39.363065 39.363065 0 0 0-39.363065-39.363066z" fill="#d97da1" p-id="8281"></path><path d="M827.01829 262.620475a39.419949 39.419949 0 0 0-39.363066 39.419949v246.019159h-214.847251a39.363065 39.363065 0 0 0-39.363066 39.363065v200.285193H120.815316a42.036568 42.036568 0 0 1-41.979685-42.036568V120.867933a42.036568 42.036568 0 0 1 41.979685-41.979685h443.687732a39.419949 39.419949 0 0 0 0-78.783014h-443.687732A120.876465 120.876465 0 0 0 0.052617 120.867933v624.80334a120.933349 120.933349 0 0 0 120.762699 120.819582h476.850546a39.306182 39.306182 0 0 0 26.905679-10.637129l229.409311-214.790369a39.81813 39.81813 0 0 0 12.457386-28.782819V302.040424a39.419949 39.419949 0 0 0-39.419948-39.419949z m-214.847252 496.93026v-132.765021h141.752542z" fill="#d97da1" p-id="8282"></path><path d="M385.093932 389.526543a39.363065 39.363065 0 0 0-39.363065-39.363065H192.544833a39.363065 39.363065 0 1 0 0 78.726131h153.186034a39.363065 39.363065 0 0 0 39.363065-39.363066z" fill="#d97da1" p-id="8283"></path><path d="M428.836992 232.017398a39.363065 39.363065 0 0 0-39.363066-39.363065H192.544833a39.363065 39.363065 0 1 0 0 78.726131h196.929093a39.363065 39.363065 0 0 0 39.363066-39.363066z" fill="#d97da1" p-id="8284"></path><path d="M202.044301 507.672623a39.419949 39.419949 0 1 0 0 78.783014H269.109408a39.419949 39.419949 0 0 0 0-78.783014z" fill="#d97da1" p-id="8285"></path><path d="M502.784947 237.47817L467.346812 318.650272l-11.376609 26.73503a50.113961 50.113961 0 0 0 9.613234 55.916031 48.350586 48.350586 0 0 0 34.528007 14.106994 54.095773 54.095773 0 0 0 21.388024-4.49376l26.678147-11.661024 81.115219-35.438135a39.81813 39.81813 0 0 0 12.059205-8.248041l205.177134-205.177135a69.16978 69.16978 0 0 0 18.998937-34.414241 51.877335 51.877335 0 0 0-13.538165-47.952405l-53.413177-53.185644A52.104867 52.104867 0 0 0 750.908779 1.242894a69.112897 69.112897 0 0 0-34.471124 18.998937L511.032988 225.418965a38.908001 38.908001 0 0 0-8.248041 12.059205z m69.16978 38.396054l188.112222-188.112222 18.714521 18.657638-188.112222 188.169105-33.162814 14.448293z" fill="#d97da1" p-id="8286"></path></svg>