<?xml version="1.0" standalone="no"?><!DOCTYPE svg PUBLIC "-//W3C//DTD SVG 1.1//EN" "http://www.w3.org/Graphics/SVG/1.1/DTD/svg11.dtd"><svg t="1644125938926" class="icon" viewBox="0 0 1024 1024" version="1.1" xmlns="http://www.w3.org/2000/svg" p-id="11749" xmlns:xlink="http://www.w3.org/1999/xlink" width="200" height="200"><defs><style type="text/css"></style></defs><path d="M998.4 953.6L896 851.2c19.2-32 32-70.4 32-108.8 0-108.8-89.6-198.4-198.4-198.4s-198.4 89.6-198.4 198.4c0 108.8 89.6 198.4 198.4 198.4 44.8 0 83.2-12.8 115.2-38.4l102.4 102.4c12.8 12.8 38.4 12.8 51.2 0 12.8-12.8 12.8-38.4 0-51.2z m-275.2-89.6c-70.4 0-121.6-57.6-121.6-121.6 0-70.4 57.6-121.6 121.6-121.6 70.4 0 121.6 57.6 121.6 121.6 6.4 70.4-51.2 121.6-121.6 121.6z" p-id="11750" fill="#d97da1"></path><path d="M211.2 1024c-51.2 0-160-32-160-140.8V198.4c0-128 83.2-192 160-192H768c96 0 160 64 160 166.4v230.4c0 19.2-12.8 44.8-38.4 44.8-32-6.4-44.8-19.2-44.8-44.8V185.6c0-70.4-64-96-89.6-96H211.2C179.2 89.6 128 128 128 211.2v640c0 96 64 96 89.6 96h192c25.6-6.4 38.4 19.2 38.4 38.4s-12.8 38.4-44.8 38.4h-192z" p-id="11751" fill="#d97da1"></path><path d="M268.8 179.2H704c19.2 0 32 12.8 32 32s-12.8 32-32 32H268.8c-19.2 0-32-12.8-32-32s6.4-32 32-32zM268.8 364.8H704c19.2 0 32 12.8 32 32s-12.8 32-32 32H268.8c-19.2 0-32-12.8-32-32 0-12.8 6.4-32 32-32zM268.8 556.8h185.6c19.2 0 32 12.8 32 32s-19.2 32-32 32H268.8c-19.2 0-32-12.8-32-32s6.4-32 32-32z" p-id="11752" fill="#d97da1"></path></svg>