<?xml version="1.0" standalone="no"?><!DOCTYPE svg PUBLIC "-//W3C//DTD SVG 1.1//EN" "http://www.w3.org/Graphics/SVG/1.1/DTD/svg11.dtd"><svg t="1644127803616" class="icon" viewBox="0 0 1024 1024" version="1.1" xmlns="http://www.w3.org/2000/svg" p-id="25287" width="200" height="200" xmlns:xlink="http://www.w3.org/1999/xlink"><defs><style type="text/css"></style></defs><path d="M853.333333 938.666667V170.666667c0-47.061333-38.272-85.333333-85.333333-85.333334H256c-47.061333 0-85.333333 38.272-85.333333 85.333334v768l341.333333-195.072L853.333333 938.666667zM256 426.666667V170.666667h512v620.928l-256-146.261334-256 146.261334V426.666667z" p-id="25288" fill="#d97568"></path><path d="M657.450667 405.845333c15.402667-15.872 24.96-37.888 24.96-62.122666s-9.514667-46.208-24.96-62.122667a83.712 83.712 0 0 0-60.245334-25.728S554.709333 255.744 512 299.776c-42.709333-44.032-85.205333-43.904-85.205333-43.904-23.552 0-44.842667 9.813333-60.245334 25.728-15.445333 15.914667-24.96 37.845333-24.96 62.122667s9.514667 46.250667 24.96 62.122666L512 563.328l145.450667-157.482667z" p-id="25289" fill="#d97568"></path></svg>