<?xml version="1.0" standalone="no"?><!DOCTYPE svg PUBLIC "-//W3C//DTD SVG 1.1//EN" "http://www.w3.org/Graphics/SVG/1.1/DTD/svg11.dtd"><svg t="1644125469518" class="icon" viewBox="0 0 1024 1024" version="1.1" xmlns="http://www.w3.org/2000/svg" p-id="6567" xmlns:xlink="http://www.w3.org/1999/xlink" width="200" height="200"><defs><style type="text/css"></style></defs><path d="M857.993472 320.2048a32.5632 32.5632 0 0 0-35.4304 28.2624l-64.2048 576a28.9792 28.9792 0 0 0-0.2048 3.5328c0 17.664-14.336 32-32.0512 32H276.719872a32.0512 32.0512 0 0 1-32.0512-32 28.9792 28.9792 0 0 0-0.2048-3.5328L180.259072 348.4672a32.1024 32.1024 0 0 0-63.7952 7.0656l64 574.4128A96.256 96.256 0 0 0 276.771072 1024h449.3824a96.256 96.256 0 0 0 96.256-94.0544l64-574.4128a32.0512 32.0512 0 0 0-28.3648-35.328z m60.672-128.2048h-128.4096V96A96.256 96.256 0 0 0 693.999872 0H308.822272a96.256 96.256 0 0 0-96.256 96V192H84.156672a32.0512 32.0512 0 1 0 0 64h834.5088a32.0512 32.0512 0 1 0 0-64z m-577.7408 0H276.719872V96c0-17.664 14.3872-32 32.1024-32h32.1024v128z m256.768 0H405.129472v-128h192.5632v128z m128.4096 0H661.897472v-128h32.1024c17.7152 0 32.0512 14.336 32.1024 32V192zM340.873472 896c0.7168 0 1.536 0 2.304-0.1024a32.0512 32.0512 0 0 0 29.696-34.2016L340.873472 413.696a31.4368 31.4368 0 0 0-34.304-29.5936 32.0512 32.0512 0 0 0-29.696 34.2016l32.1024 448c1.2288 16.7424 15.1552 29.696 32 29.696z m321.024 0c16.7936 0 30.72-12.9536 31.9488-29.696l32.1024-448a31.9488 31.9488 0 0 0-29.696-34.2016 31.5904 31.5904 0 0 0-34.304 29.5936l-32.1024 448a31.8976 31.8976 0 0 0 32 34.304z m-128.4608-32v-448a32.0512 32.0512 0 0 0-64.1536 0v448a32.0512 32.0512 0 0 0 64.1536 0z" p-id="6568" fill="#d81e06"></path></svg>